<svg xmlns="http://www.w3.org/2000/svg" width="980" height="224" viewBox="0 0 980 224" role="img" aria-labelledby="title desc">
  <title id="title">Logo Szkolne gazetki z białym napisem</title>
  <desc id="desc">Nowe czerwone koło z ikoną gazety oraz biały napis Szkolne gazetki</desc>

  <g transform="scale(3.5)">
    <circle cx="32" cy="32" r="30" fill="#dc2626" />
    <rect x="18" y="13" width="28" height="38" rx="4" fill="#fff" stroke="#f8fafc" stroke-width="1"/>
    <path d="M34 15 H44 L44 25 H34 Z" fill="#fbbf24" />
    <path d="M44 15 L44 25 H34 Z" fill="#f59e0b" opacity="0.6"/>
    <circle cx="28" cy="20" r="3.75" fill="#2563eb" />
    <rect x="22" y="26" width="18" height="2" rx="1" fill="#e11d48"/>
    <rect x="22" y="30" width="16" height="2" rx="1" fill="#e11d48"/>
    <rect x="22" y="34" width="12" height="2" rx="1" fill="#e11d48"/>
    <rect x="22" y="38" width="7" height="2" rx="1" fill="#e11d48"/>
    <polygon points="44,34 40,38 44,42" fill="#16a34a" />
    <circle cx="34" cy="39" r="2" fill="#dc2626"/>
    <path d="M30 45 L32 43 L34 45 L38 41 L42 47" fill="none" stroke="#dc2626" stroke-width="1.5" stroke-linecap="round" stroke-linejoin="round"/>
  </g>

  <text x="280" y="140" font-family="Arial, Helvetica, sans-serif" font-size="78" font-weight="800" fill="#ffffff" letter-spacing="0.6">Szkolne gazetki</text>
</svg>
