<svg xmlns="http://www.w3.org/2000/svg" viewBox="15 25 555 335" role="img" aria-label="Ilustracja gazetki ściennej szkolnej w formacie PDF">

  <!-- ══ TABLICA KORKOWA ══ -->
  <rect x="15" y="25" width="555" height="335" rx="10" fill="#6b3f1f"/>
  <rect x="24" y="33" width="537" height="319" rx="7" fill="#c9935a"/>
  <!-- tekstura korka -->
  <line x1="24"  y1="80"  x2="561" y2="80"  stroke="#d4a06a" stroke-width="0.8" opacity="0.4"/>
  <line x1="24"  y1="130" x2="561" y2="130" stroke="#d4a06a" stroke-width="0.8" opacity="0.4"/>
  <line x1="24"  y1="180" x2="561" y2="180" stroke="#d4a06a" stroke-width="0.8" opacity="0.4"/>
  <line x1="24"  y1="230" x2="561" y2="230" stroke="#d4a06a" stroke-width="0.8" opacity="0.4"/>
  <line x1="24"  y1="280" x2="561" y2="280" stroke="#d4a06a" stroke-width="0.8" opacity="0.4"/>
  <line x1="100" y1="33"  x2="100" y2="352" stroke="#d4a06a" stroke-width="0.8" opacity="0.35"/>
  <line x1="200" y1="33"  x2="200" y2="352" stroke="#d4a06a" stroke-width="0.8" opacity="0.35"/>
  <line x1="300" y1="33"  x2="300" y2="352" stroke="#d4a06a" stroke-width="0.8" opacity="0.35"/>
  <line x1="400" y1="33"  x2="400" y2="352" stroke="#d4a06a" stroke-width="0.8" opacity="0.35"/>
  <line x1="500" y1="33"  x2="500" y2="352" stroke="#d4a06a" stroke-width="0.8" opacity="0.35"/>

  <!-- ══ PLANSZA 1 (lewa) ══ -->
  <rect x="52" y="57" width="152" height="256" rx="4" fill="rgba(0,0,0,0.18)"/>
  <rect x="48" y="53" width="152" height="256" rx="4" fill="#ffffff"/>
  <rect x="48" y="53" width="152" height="34" rx="4" fill="#8b0000"/>
  <rect x="48" y="70" width="152" height="17" fill="#8b0000"/>
  <text x="124" y="68" font-family="Georgia,'Times New Roman',serif" font-size="8.5" font-weight="700" fill="#ffffff" text-anchor="middle" letter-spacing="1.2">GAZETKA SZKOLNA</text>
  <!-- duże zdjęcie -->
  <rect x="58" y="97" width="132" height="78" rx="2" fill="#efefef" stroke="#e0e0e0" stroke-width="1"/>
  <polygon points="78,167 100,135 122,167" fill="#d0d0d0"/>
  <polygon points="112,167 134,142 156,167" fill="#c4c4c4"/>
  <circle cx="168" cy="145" r="10" fill="#d8d8d8"/>
  <!-- nagłówek artykułu -->
  <rect x="58" y="186" width="132" height="9" rx="2" fill="#1a1a1a"/>
  <rect x="58" y="200" width="112" height="7" rx="2" fill="#333"/>
  <!-- linie tekstu -->
  <rect x="58" y="216" width="132" height="5" rx="1.5" fill="#c8c8c8"/>
  <rect x="58" y="225" width="116" height="5" rx="1.5" fill="#d8d8d8"/>
  <rect x="58" y="234" width="124" height="5" rx="1.5" fill="#c8c8c8"/>
  <rect x="58" y="243" width="100" height="5" rx="1.5" fill="#d8d8d8"/>
  <rect x="58" y="252" width="118" height="5" rx="1.5" fill="#c8c8c8"/>
  <!-- badge sekcji -->
  <line x1="58" y1="271" x2="190" y2="271" stroke="#e8e8e8" stroke-width="1"/>
  <rect x="58" y="264" width="68" height="13" rx="2.5" fill="#b30000"/>
  <text x="92" y="274" font-family="Arial,Helvetica,sans-serif" font-size="6" fill="#ffffff" font-weight="700" text-anchor="middle">AKTUALNOŚCI</text>
  <!-- szpilki -->
  <circle cx="55"  cy="58" r="7" fill="#aa1100"/>
  <circle cx="55"  cy="58" r="3.5" fill="#ff3322" opacity="0.7"/>
  <circle cx="193" cy="58" r="7" fill="#aa1100"/>
  <circle cx="193" cy="58" r="3.5" fill="#ff3322" opacity="0.7"/>

  <!-- ══ PLANSZA 2 (środkowa) ══ -->
  <rect x="222" y="52" width="152" height="256" rx="4" fill="rgba(0,0,0,0.18)"/>
  <rect x="218" y="48" width="152" height="256" rx="4" fill="#ffffff"/>
  <rect x="218" y="48" width="152" height="34" rx="4" fill="#8b0000"/>
  <rect x="218" y="65" width="152" height="17" fill="#8b0000"/>
  <text x="294" y="63" font-family="Georgia,'Times New Roman',serif" font-size="8.5" font-weight="700" fill="#ffffff" text-anchor="middle" letter-spacing="1.2">GAZETKA SZKOLNA</text>
  <!-- układ 2-kolumnowy -->
  <line x1="294" y1="92" x2="294" y2="279" stroke="#efefef" stroke-width="1"/>
  <!-- kolumna lewa -->
  <rect x="228" y="92" width="58" height="52" rx="2" fill="#efefef" stroke="#e0e0e0" stroke-width="1"/>
  <polygon points="238,136 252,112 266,136" fill="#d0d0d0"/>
  <circle cx="274" cy="114" r="8" fill="#d8d8d8"/>
  <rect x="228" y="150" width="58" height="5" rx="1.5" fill="#c8c8c8"/>
  <rect x="228" y="160" width="50" height="5" rx="1.5" fill="#d8d8d8"/>
  <rect x="228" y="170" width="54" height="5" rx="1.5" fill="#c8c8c8"/>
  <rect x="228" y="185" width="58" height="44" rx="2" fill="#efefef" stroke="#e0e0e0" stroke-width="1"/>
  <rect x="228" y="236" width="52" height="5" rx="1.5" fill="#c8c8c8"/>
  <rect x="228" y="245" width="44" height="5" rx="1.5" fill="#d8d8d8"/>
  <rect x="228" y="254" width="50" height="5" rx="1.5" fill="#c8c8c8"/>
  <!-- kolumna prawa -->
  <rect x="302" y="92" width="60" height="8" rx="2" fill="#1a1a1a"/>
  <rect x="302" y="106" width="52" height="5" rx="1.5" fill="#c8c8c8"/>
  <rect x="302" y="115" width="56" height="5" rx="1.5" fill="#d8d8d8"/>
  <rect x="302" y="124" width="46" height="5" rx="1.5" fill="#c8c8c8"/>
  <rect x="302" y="133" width="54" height="5" rx="1.5" fill="#d8d8d8"/>
  <rect x="302" y="148" width="60" height="38" rx="2" fill="#efefef" stroke="#e0e0e0" stroke-width="1"/>
  <rect x="302" y="193" width="55" height="5" rx="1.5" fill="#c8c8c8"/>
  <rect x="302" y="202" width="46" height="5" rx="1.5" fill="#d8d8d8"/>
  <rect x="302" y="211" width="52" height="5" rx="1.5" fill="#c8c8c8"/>
  <rect x="302" y="220" width="42" height="5" rx="1.5" fill="#d8d8d8"/>
  <rect x="302" y="229" width="50" height="5" rx="1.5" fill="#c8c8c8"/>
  <rect x="302" y="238" width="44" height="5" rx="1.5" fill="#d8d8d8"/>
  <!-- badge -->
  <line x1="228" y1="272" x2="360" y2="272" stroke="#e8e8e8" stroke-width="1"/>
  <rect x="228" y="265" width="48" height="13" rx="2.5" fill="#b30000"/>
  <text x="252" y="275" font-family="Arial,Helvetica,sans-serif" font-size="6" fill="#ffffff" font-weight="700" text-anchor="middle">SPORT</text>
  <!-- szpilki -->
  <circle cx="225" cy="55" r="7" fill="#145214"/>
  <circle cx="225" cy="55" r="3.5" fill="#2db32d" opacity="0.7"/>
  <circle cx="363" cy="55" r="7" fill="#145214"/>
  <circle cx="363" cy="55" r="3.5" fill="#2db32d" opacity="0.7"/>

  <!-- ══ PLANSZA 3 (prawa) ══ -->
  <rect x="392" y="55" width="152" height="256" rx="4" fill="rgba(0,0,0,0.18)"/>
  <rect x="388" y="51" width="152" height="256" rx="4" fill="#ffffff"/>
  <rect x="388" y="51" width="152" height="34" rx="4" fill="#8b0000"/>
  <rect x="388" y="68" width="152" height="17" fill="#8b0000"/>
  <text x="464" y="66" font-family="Georgia,'Times New Roman',serif" font-size="8.5" font-weight="700" fill="#ffffff" text-anchor="middle" letter-spacing="1.2">GAZETKA SZKOLNA</text>
  <!-- duże zdjęcie na górze -->
  <rect x="398" y="95" width="132" height="82" rx="2" fill="#efefef" stroke="#e0e0e0" stroke-width="1"/>
  <polygon points="415,169 442,130 469,169" fill="#d0d0d0"/>
  <polygon points="455,169 478,142 501,169" fill="#c4c4c4"/>
  <circle cx="516" cy="138" r="12" fill="#d8d8d8"/>
  <!-- nagłówek -->
  <rect x="398" y="187" width="132" height="9" rx="2" fill="#1a1a1a"/>
  <rect x="398" y="201" width="110" height="7" rx="2" fill="#333"/>
  <!-- tekst -->
  <rect x="398" y="216" width="132" height="5" rx="1.5" fill="#c8c8c8"/>
  <rect x="398" y="225" width="115" height="5" rx="1.5" fill="#d8d8d8"/>
  <rect x="398" y="234" width="126" height="5" rx="1.5" fill="#c8c8c8"/>
  <rect x="398" y="243" width="102" height="5" rx="1.5" fill="#d8d8d8"/>
  <rect x="398" y="252" width="120" height="5" rx="1.5" fill="#c8c8c8"/>
  <rect x="398" y="261" width="108" height="5" rx="1.5" fill="#d8d8d8"/>
  <!-- badge -->
  <line x1="398" y1="279" x2="530" y2="279" stroke="#e8e8e8" stroke-width="1"/>
  <rect x="398" y="272" width="58" height="13" rx="2.5" fill="#b30000"/>
  <text x="427" y="282" font-family="Arial,Helvetica,sans-serif" font-size="6" fill="#ffffff" font-weight="700" text-anchor="middle">KULTURA</text>
  <!-- szpilki -->
  <circle cx="395" cy="58" r="7" fill="#1a2f8b"/>
  <circle cx="395" cy="58" r="3.5" fill="#4a7ed4" opacity="0.7"/>
  <circle cx="533" cy="58" r="7" fill="#1a2f8b"/>
  <circle cx="533" cy="58" r="3.5" fill="#4a7ed4" opacity="0.7"/>

  <!-- ══ PDF BADGE ══ -->
  <circle cx="541" cy="344" r="23" fill="rgba(0,0,0,0.2)"/>
  <circle cx="538" cy="341" r="23" fill="#ffffff" opacity="0.96"/>
  <text x="538" y="337" font-family="Arial,Helvetica,sans-serif" font-size="10" font-weight="800" fill="#b30000" text-anchor="middle" letter-spacing="0.5">PDF</text>
  <text x="538" y="350" font-family="Arial,Helvetica,sans-serif" font-size="6" fill="#888" text-anchor="middle">gotowe</text>

</svg>
